Coordinates
version=1
nRows=9
nColumns=40
inDegrees=yes

Units are S.I. units (second, meters, Newtons, ...)
If the header above contains a line with 'inDegrees', this indicates whether rotational values are in degrees (yes) or radians (no).

endheader
time	pelvis_tilt	pelvis_list	pelvis_rotation	pelvis_tx	pelvis_ty	pelvis_tz	hip_flexion_r	hip_adduction_r	hip_rotation_r	knee_angle_r	knee_angle_r_beta	ankle_angle_r	subtalar_angle_r	mtp_angle_r	hip_flexion_l	hip_adduction_l	hip_rotation_l	knee_angle_l	knee_angle_l_beta	ankle_angle_l	subtalar_angle_l	mtp_angle_l	lumbar_extension	lumbar_bending	lumbar_rotation	arm_flex_r	arm_add_r	arm_rot_r	elbow_flex_r	pro_sup_r	wrist_flex_r	wrist_dev_r	arm_flex_l	arm_add_l	arm_rot_l	elbow_flex_l	pro_sup_l	wrist_flex_l	wrist_dev_l
      8.10999999999999943157	     30.47490879182136325198	      1.35901355666797485355	   -172.97593200983808969795	      0.38923306767313703425	      0.76444847907529134279	     -0.56092292498557017044	     89.06879883686495702477	    -20.15916525236398371135	     -3.58338098007324035166	     72.94199945223583370080	      1.27307805342941571247	     17.17356227142314040179	      0.00000000000000000000	      0.00000000000000000000	     88.77580828872845586375	     -2.66504306535128909772	     -0.83396528992605178932	     73.16497022193719601546	      1.27696962749641040880	     13.76682143901413724052	      0.00000000000000000000	      0.00000000000000000000	    -53.70945372652658278412	      8.23704279994360355488	     -0.39240530121785693884	     66.33806995597790034935	    -18.48349840426658019510	     34.42828397895208070167	     22.53104375369444056787	     89.02862614512845595982	      0.00000000000000000000	      0.00000000000000000000	     70.65881855649436715794	    -12.93480650299235357181	     58.06177566556674918274	     22.22014087877144916661	     85.69985592279678598970	      0.00000000000000000000	      0.00000000000000000000
      8.11500000000000021316	     30.50917815105284702781	      1.40654582689288676356	   -173.01605431665967671506	      0.38985954931808108892	      0.76377660881841746843	     -0.56093780212926502848	     89.20927851745416603535	    -20.07172652167230708642	     -3.52464813715982794307	     73.00318001984557270134	      1.27414585577244454662	     17.12738595407112640601	      0.00000000000000000000	      0.00000000000000000000	     88.93605362776487766041	     -2.72258758706989922871	     -0.81107807529009046110	     73.26205055642225261181	      1.27866399897211202585	     13.73781221916276606976	      0.00000000000000000000	      0.00000000000000000000	    -53.56459463919161123613	      8.24159342515473625213	     -0.33361607321634845214	     66.26717618467296233575	    -18.63351620074503145474	     34.74941751274631940305	     22.71824406347193558986	     89.02565223943122418859	      0.00000000000000000000	      0.00000000000000000000	     70.55188182704532096068	    -12.80065914216516809176	     57.67149186237456603976	     22.06299588094052666065	     85.65980870122864132554	      0.00000000000000000000	      0.00000000000000000000
      8.11999999999999921840	     30.43510518962403565979	      1.45738870744036930205	   -173.01120206280845081892	      0.39021090718207268599	      0.76354502806525970104	     -0.56096093270821134613	     89.17280809643591510394	    -20.09287376667311875167	     -3.61175777765943006870	     73.05203674208087250008	      1.27499856643718278981	     17.11723742707411233255	      0.00000000000000000000	      0.00000000000000000000	     88.94155677262919823534	     -2.75621008725493643610	     -0.78769069837768945774	     73.33120107566358569784	      1.27987090321233698553	     13.71177939110781274223	      0.00000000000000000000	      0.00000000000000000000	    -53.56488215737712721420	      8.27673770437060518645	     -0.32234862896022914436	     66.24790661308662720330	    -18.54630403269632665797	     34.54879604205782328563	     22.66233744805618144369	     89.03125283304140680229	      0.00000000000000000000	      0.00000000000000000000	     70.52945513889379469674	    -12.87366010524134551929	     57.82079206741122590074	     22.13057084554491638073	     85.72152697330209036863	      0.00000000000000000000	      0.00000000000000000000
      8.12500000000000000000	     30.40780213644100626880	      1.53187363091295813966	   -172.97177346168589906483	      0.39070748928941079203	      0.76313581526546270251	     -0.56083196774404409091	     89.20129519235545956235	    -20.12705278318358281808	     -3.66525937338757801243	     73.11774606076455995662	      1.27614541039745543749	     17.07681035334082153554	      0.00000000000000000000	      0.00000000000000000000	     89.01945969407286440855	     -2.74193685723188984582	     -0.74014857049066706818	     73.39745616966753516408	      1.28102727274892425058	     13.69640225724918636274	      0.00000000000000000000	      0.00000000000000000000	    -53.50170601414079385449	      8.36729675205836542773	     -0.32843575753615972257	     66.22147845790165376911	    -18.48201186486040370482	     34.41919604968129675626	     22.67510331108524113120	     89.03178581854804463092	      0.00000000000000000000	      0.00000000000000000000	     70.47170536706869370391	    -12.92524362206271248965	     57.78734668063102475344	     22.16241857515991853234	     85.81136686165672244897	      0.00000000000000000000	      0.00000000000000000000
      8.13000000000000078160	     30.36114262438463740068	      1.59157275331480829728	   -173.00493597603124840134	      0.39118914878326016549	      0.76281083175833352961	     -0.56082944370329834705	     89.19679734489476174986	    -20.07880341597187978664	     -3.70792914069826995416	     73.13975530870928309923	      1.27652954423997866407	     17.07801314420520455428	      0.00000000000000000000	      0.00000000000000000000	     89.07207913037917990096	     -2.76565095223510981626	     -0.64788084468697981766	     73.47275554787110252164	      1.28234149482328096958	     13.66945028376285975469	      0.00000000000000000000	      0.00000000000000000000	    -53.47575930491198903383	      8.38713167946806947839	     -0.28266439005787358241	     66.20187708653588742891	    -18.48149379817625970190	     34.43768631432086380073	     22.69636076561523552186	     89.02697511346148928624	      0.00000000000000000000	      0.00000000000000000000	     70.44744327011086681978	    -12.92639589814643841237	     57.77595899939744583662	     22.15063300198268692043	     85.76005752405147575246	      0.00000000000000000000	      0.00000000000000000000
      8.13499999999999978684	     30.32731655429786954414	      1.60141363513152179543	   -172.93388908724779184922	      0.39157649395389509950	      0.76243867076173255093	     -0.56050711795496310774	     89.23954067396770994947	    -20.14875593314102530940	     -3.64321798368791238687	     73.21010803226499774610	      1.27775743090377136291	     16.99654768734864518365	      0.00000000000000000000	      0.00000000000000000000	     89.10398929885108998405	     -2.67837040936106873801	     -0.64775981955970296511	     73.52469053032839951811	      1.28324793126412628474	     13.72723991673852772522	      0.00000000000000000000	      0.00000000000000000000	    -53.42301974111516926769	      8.46592191213134448446	     -0.31788762172337103884	     66.15586309176811141697	    -18.54655764604348178182	     34.54523106380295871531	     22.79486801479264101999	     89.02957751037736500166	      0.00000000000000000000	      0.00000000000000000000	     70.38919393910686039817	    -12.78525434444756214702	     57.55382724732618981989	     21.96452051367961288975	     85.52733018443646528794	      0.00000000000000000000	      0.00000000000000000000
      8.14000000000000056843	     30.24262702408507408336	      1.71735328347033311402	   -172.86918456878527194931	      0.39188399590668959727	      0.76218493552799382318	     -0.56043763846889427249	     89.15364892114166650572	    -20.19026073093822049032	     -3.75868282762561189969	     73.25298221089872185985	      1.27850572648501792372	     17.12403911261925060217	      0.00000000000000000000	      0.00000000000000000000	     89.12027772540517389643	     -2.65325809080733687750	     -0.54728532181734323991	     73.59614017418722653474	      1.28449496279884023409	     13.69478155821733089681	      0.00000000000000000000	      0.00000000000000000000	    -53.42848590880137749082	      8.60135632901437219289	     -0.30339886411417182899	     66.17155278296499432145	    -18.44032575153717701255	     34.50016860313180444564	     22.67526117800604623653	     89.02618602215676446576	      0.00000000000000000000	      0.00000000000000000000	     70.39352994225053805621	    -12.94078581510955849865	     58.01206868611462397212	     22.12678907094374025633	     85.77367597965128709347	      0.00000000000000000000	      0.00000000000000000000
      8.14499999999999957367	     30.17114314712396350160	      1.76262557242254835899	   -172.80809748098994305110	      0.39224485990277696557	      0.76201022721551958661	     -0.56019722793402959571	     89.11445407872945168037	    -20.29453819327180852383	     -3.84605214314187016100	     73.29178902401264394939	      1.27918303314606207621	     16.99981171435218385568	      0.00000000000000000000	      0.00000000000000000000	     89.11901984913832563961	     -2.58841196351524205355	     -0.50112513691420346174	     73.64207363356244684383	      1.28529665290176886572	     13.67345577317616189816	      0.00000000000000000000	      0.00000000000000000000	    -53.42783498475883163792	      8.70081302684224056065	     -0.27922745002093007916	     66.17729311944914627475	    -18.51632464362203833730	     34.74558928292883308586	     22.70582306364467939375	     89.03801520287744608595	      0.00000000000000000000	      0.00000000000000000000	     70.27770798333692425786	    -12.72174509954573018433	     57.34933682764325624248	     21.89932907154631180902	     85.24011824504881928988	      0.00000000000000000000	      0.00000000000000000000
      8.15000000000000035527	     30.10990177516418242476	      1.84852477764294786944	   -172.88302764216567197764	      0.39258168326044334817	      0.76167311024524908536	     -0.56036468512592119140	     89.07432677602820092488	    -20.18146106357677282972	     -3.90683088343198425818	     73.31517851683487663195	      1.27959125680618157617	     17.06733275963460982894	      0.00000000000000000000	      0.00000000000000000000	     89.15759943030597867164	     -2.69202343106012653706	     -0.41334789795154974756	     73.73531875405176094773	      1.28692408726572615763	     13.69918646168761000581	      0.00000000000000000000	      0.00000000000000000000	    -53.41944372746930724816	      8.70384307115015687373	     -0.17371119869624349064	     66.17933397012204466137	    -18.49752503707924944365	     34.80394984932537028044	     22.65005023273274531448	     89.02720350054893572178	      0.00000000000000000000	      0.00000000000000000000	     70.32173622733631646042	    -12.84364443719976733860	     57.87376396822667601327	     22.03714862575208144335	     85.53464737203923107245	      0.00000000000000000000	      0.00000000000000000000
